<svg version="1.1" id="Layer_1" xmlns="http://www.w3.org/2000/svg" xmlns:xlink="http://www.w3.org/1999/xlink" x="0px" y="0px"
	 width="100%" viewBox="0 0 1024 1024" enable-background="new 0 0 1024 1024" xml:space="preserve">
<path fill="#000000" opacity="1.000000" stroke="none" 
	d="
M499.000000,1025.000000 
	C334.166656,1025.000000 169.833313,1024.985107 5.500062,1025.093872 
	C1.750665,1025.096436 0.905801,1024.249146 0.906913,1020.500000 
	C1.007246,682.166687 1.007246,343.833344 0.906913,5.500028 
	C0.905801,1.750903 1.750902,0.905800 5.500028,0.906912 
	C343.833344,1.007255 682.166687,1.007255 1020.500000,0.906912 
	C1024.249146,0.905800 1025.094360,1.750902 1025.093262,5.500027 
	C1024.992920,343.833344 1024.992798,682.166687 1025.093140,1020.500000 
	C1025.094238,1024.249146 1024.249268,1025.096191 1020.499939,1025.093872 
	C846.833313,1024.985962 673.166687,1025.000000 499.000000,1025.000000 
z"/>
<path fill="#C19B3D" opacity="1.000000" stroke="none" 
	d="
M698.715820,534.259644 
	C701.373901,534.026001 703.759460,533.967285 706.584229,533.998779 
	C708.083618,534.797791 709.259094,534.417053 710.688354,534.265747 
	C711.438965,534.027466 711.892517,533.968628 712.681396,533.993469 
	C718.057678,534.970520 723.136597,534.316772 728.586426,534.283813 
	C740.378479,533.379150 740.543335,533.399902 739.094604,544.893555 
	C735.013306,577.274292 720.390869,602.800842 690.699707,618.317383 
	C678.653015,624.612976 665.585327,626.911621 652.183228,627.473450 
	C648.538574,627.626221 646.176575,628.850769 643.854431,631.731689 
	C616.072937,666.198486 579.804321,684.995850 535.933472,689.134583 
	C455.754761,696.698486 378.024109,641.476318 363.790833,554.627625 
	C362.847290,548.870239 362.036041,543.111267 361.985809,537.274658 
	C361.973145,535.805908 361.271484,533.634644 364.587799,534.012390 
	C366.451202,534.862000 367.968292,534.394470 369.717896,534.256775 
	C370.749329,534.024597 371.510345,533.969055 372.645599,533.998779 
	C373.465576,534.488159 373.990692,534.508057 374.764557,534.240295 
	C375.441742,534.027100 375.896973,533.972168 376.687927,534.002930 
	C390.388794,534.987488 403.767731,534.316345 417.565674,534.250977 
	C419.390778,533.998657 420.789856,533.938416 422.601196,533.967163 
	C431.720795,535.013245 440.452667,534.307495 449.581299,534.249512 
	C452.040955,533.987854 454.091400,533.919495 456.573303,533.942139 
	C457.901428,534.632080 458.921478,534.495239 459.908417,534.494568 
	C507.306183,534.462219 554.704041,534.578735 602.548584,534.238220 
	C603.751221,533.972900 604.507080,533.909973 605.634094,533.937683 
	C615.227783,535.115601 624.483337,534.244812 633.720947,534.478760 
	C637.524719,534.575134 641.335205,534.568787 645.567261,534.249878 
	C646.445007,534.000122 646.897339,533.943176 647.682861,533.975220 
	C649.112732,534.843994 650.331238,534.417847 651.748962,534.237061 
	C653.067871,533.994385 654.144592,533.931152 655.616943,533.962158 
	C662.727051,535.029175 669.474182,534.298950 676.599365,534.246582 
	C678.071106,533.989014 679.148071,533.927979 680.620239,533.962280 
	C684.076660,534.986694 687.205627,534.313538 690.643066,534.262024 
	C691.748352,534.016235 692.510681,533.959229 693.647583,533.989990 
	C695.440002,534.888733 696.964294,534.381348 698.715820,534.259644 
z"/>
<path fill="#C09A3B" opacity="1.000000" stroke="none" 
	d="
M298.777954,551.954224 
	C298.376282,551.409119 298.233765,550.942566 298.152710,550.234802 
	C299.475891,548.551392 298.558258,547.011353 298.198486,545.250122 
	C297.891846,544.564636 297.802307,544.135071 297.776245,543.380981 
	C299.494537,540.528992 297.721832,537.950989 297.924866,535.367615 
	C298.364471,529.772766 297.349792,524.076477 299.119781,518.566589 
	C299.459900,517.507690 298.934601,516.632324 298.302124,515.378723 
	C298.332397,512.596497 298.549377,510.179565 298.882202,507.384369 
	C301.259552,505.013428 302.800537,506.040436 304.284698,508.116058 
	C305.757599,510.176056 306.707886,512.541077 307.443909,514.831604 
	C308.625458,518.508789 310.809296,519.413086 314.218872,518.699707 
	C314.869629,518.563599 314.049103,518.636963 314.709503,518.626648 
	C317.343140,518.585571 320.180969,516.145752 322.553833,519.212708 
	C323.316803,520.198914 323.698669,521.622986 322.813019,522.441101 
	C320.318787,524.745056 318.033112,527.723816 313.887787,526.687378 
	C313.254761,526.529053 314.062836,526.693542 312.950653,526.627441 
	C315.769592,528.920654 317.294250,531.639587 317.698578,534.880615 
	C317.480896,531.516357 318.989838,528.501038 320.054413,525.484375 
	C320.815613,523.327393 323.030701,522.604553 325.470795,523.063538 
	C328.274292,523.590820 327.417603,525.744263 327.473633,527.405273 
	C327.624817,531.884705 327.348785,536.371155 327.910095,540.741089 
	C329.665894,555.703491 331.792419,570.639771 335.884399,585.283813 
	C356.342651,658.497620 422.724274,714.799927 498.231232,722.024231 
	C556.357544,727.585632 607.530579,711.419189 650.397217,671.002197 
	C659.152588,662.747131 666.746338,653.475098 673.903381,643.829041 
	C676.859680,639.844543 680.430420,636.691711 685.540039,635.865295 
	C692.948242,634.667053 698.958740,637.468506 702.858643,644.024841 
	C706.453125,650.067627 705.427124,655.817932 701.441223,661.264832 
	C688.575562,678.845886 673.702026,694.489624 656.344604,707.699890 
	C617.220032,737.476440 573.034485,752.904236 523.911011,754.225098 
	C415.945709,757.128174 322.198700,681.502625 301.815033,575.049988 
	C300.782776,569.659180 299.991241,564.222229 299.128265,558.383667 
	C299.504089,557.484192 299.510620,556.964294 299.204956,556.214233 
	C298.867737,555.286865 298.697754,554.570618 298.576599,553.488770 
	C299.059509,552.871826 299.674042,552.688599 298.777954,551.954224 
z"/>
<path fill="#CAA240" opacity="1.000000" stroke="none" 
	d="
M460.104309,265.650696 
	C458.305908,241.719696 466.147491,221.013565 478.420441,201.605637 
	C482.304993,195.462723 486.209961,189.321198 491.499817,183.009857 
	C491.297760,191.223969 490.342377,198.498093 490.577362,205.852707 
	C491.219116,225.935272 498.998322,243.239990 510.146698,259.441345 
	C518.109741,271.013611 527.676086,281.215729 536.990601,291.641663 
	C543.773987,299.234497 550.056458,307.160187 554.647705,316.333984 
	C562.410217,331.844238 563.717712,347.779602 558.112000,364.234467 
	C552.599182,380.416901 543.080078,394.122772 531.560913,407.432648 
	C531.216858,401.934692 531.166992,397.061218 530.566101,392.256683 
	C528.263489,373.847321 518.334961,359.104187 507.384064,344.905609 
	C497.726746,332.384186 486.120758,321.451324 477.325623,308.228790 
	C468.764832,295.358612 462.085541,281.696472 460.104309,265.650696 
z"/>
<path fill="#C69F3E" opacity="1.000000" stroke="none" 
	d="
M328.226135,540.185791 
	C328.062469,541.733887 327.922699,542.837036 327.782898,543.940186 
	C327.516998,543.927856 327.251099,543.915588 326.985199,543.903320 
	C326.985199,538.970276 326.834869,534.030823 327.046265,529.106934 
	C327.158112,526.502502 326.498962,524.677063 323.746948,525.015747 
	C320.648102,525.397095 321.953888,527.253967 322.922913,528.862793 
	C323.830566,530.369812 322.410126,530.832520 321.601074,531.593201 
	C320.401855,532.720703 318.079651,533.465698 320.166046,535.818481 
	C320.541199,536.241577 315.262482,541.348694 314.627441,541.079651 
	C312.852570,540.327576 313.223602,539.113281 314.143585,537.892639 
	C314.927917,536.851868 317.558929,536.255920 315.838287,534.583130 
	C314.124451,532.916931 314.315979,529.427368 311.061310,529.359314 
	C306.748871,529.269104 308.121277,525.235168 307.163269,523.142395 
	C306.665558,522.055115 309.563416,522.286377 310.755707,522.959778 
	C313.825745,524.693848 316.747284,524.365234 319.766815,522.929443 
	C320.729492,522.471680 321.704712,522.052979 321.325897,520.831787 
	C320.927216,519.546326 319.851776,519.737671 318.864594,520.140259 
	C315.058807,521.692322 311.440338,520.906738 307.734619,519.567261 
	C304.018280,518.223938 303.016357,515.657043 303.119751,511.991852 
	C303.182190,509.778717 302.129211,507.817810 299.337006,507.060394 
	C301.017548,484.446960 306.843079,462.821350 315.923584,442.164795 
	C340.208679,386.920471 381.277435,349.234253 437.199738,327.304810 
	C440.853455,325.872040 444.528473,325.142914 448.397858,326.253876 
	C455.961700,328.425598 460.852203,333.838470 461.238037,340.461121 
	C461.650238,347.536804 457.075989,354.234833 449.184601,357.006592 
	C435.431610,361.837189 422.532501,368.315735 410.641327,376.667023 
	C364.777313,408.877686 337.605927,452.641876 329.789917,508.263947 
	C329.604645,509.582550 329.384430,510.896240 329.076477,512.603271 
	C328.802185,513.148987 328.631958,513.303650 328.163910,513.630798 
	C324.815247,513.944153 322.095001,516.551880 319.358215,515.120056 
	C320.718323,515.602722 322.564850,515.471191 324.412994,514.733826 
	C326.195160,514.022766 327.633759,514.390198 328.463806,516.664062 
	C328.448792,518.302002 328.648651,519.588379 328.185425,521.224365 
	C328.144318,527.650940 328.197174,533.695862 328.226135,540.185791 
z"/>
<path fill="#C9A240" opacity="1.000000" stroke="none" 
	d="
M686.212769,440.866760 
	C664.479370,403.547455 635.769958,374.440765 595.390198,358.121155 
	C586.816956,354.656281 581.268188,346.706329 582.268860,339.953949 
	C583.883606,329.057892 594.835510,322.798462 605.202881,327.049622 
	C634.456421,339.045227 659.873779,356.676239 681.500671,379.704956 
	C714.245789,414.572601 732.794067,456.180786 739.895691,503.213806 
	C740.685242,508.443359 740.066589,512.706665 735.293579,515.810242 
	C729.430664,519.622498 723.257629,521.074341 716.930847,517.593567 
	C712.179810,514.979675 708.781616,511.161469 707.732056,505.281921 
	C703.737122,482.902252 697.591187,461.191132 686.212769,440.866760 
z"/>
<path fill="#C49E3F" opacity="1.000000" stroke="none" 
	d="
M548.023132,482.977142 
	C556.546143,491.579041 564.819153,499.930878 573.806335,509.003693 
	C565.653625,509.003693 558.406616,508.976166 551.160095,509.019257 
	C548.769836,509.033447 547.751648,507.109619 546.400391,505.766815 
	C522.885559,482.399780 499.418152,458.985107 475.929382,435.591888 
	C470.320038,430.005310 469.280396,429.997589 463.826599,435.508240 
	C440.508789,459.069336 417.181000,482.620667 393.935455,506.252869 
	C392.034607,508.185364 390.175568,509.105042 387.440308,509.030640 
	C380.857330,508.851562 374.266144,508.972656 367.399963,508.972656 
	C368.151367,506.371857 369.929169,505.301178 371.266541,503.953125 
	C398.251770,476.753052 425.270142,449.585846 452.293976,422.424042 
	C466.455719,408.190002 472.909698,408.207092 487.206116,422.441010 
	C507.392456,442.539062 527.583862,462.631989 548.023132,482.977142 
z"/>
<path fill="#C7A040" opacity="1.000000" stroke="none" 
	d="
M660.900146,493.093140 
	C666.127014,498.002655 671.103210,502.660461 676.079407,507.318268 
	C675.844482,507.833252 675.609558,508.348267 675.374634,508.863281 
	C667.906616,508.863281 660.434448,508.986420 652.975098,508.732910 
	C651.832031,508.694061 650.692688,506.973297 649.644958,505.936218 
	C635.925598,492.356812 622.107910,478.873230 608.596436,465.089691 
	C605.187805,461.612335 603.126160,462.160156 600.165710,465.336975 
	C594.723083,471.177429 588.907959,476.669434 583.403442,482.454437 
	C581.712036,484.232025 580.632812,484.226868 579.016724,482.485870 
	C575.962097,479.195129 570.850159,476.441589 570.100708,472.752289 
	C569.276917,468.697144 575.201721,466.223816 578.123901,463.034058 
	C582.727844,458.008484 587.614380,453.228943 592.553101,448.525665 
	C600.726440,440.741913 608.546265,440.701050 616.585022,448.657013 
	C631.368896,463.288483 645.971436,478.103088 660.900146,493.093140 
z"/>
<path fill="#C09B3E" opacity="1.000000" stroke="none" 
	d="
M463.706848,458.402222 
	C466.452911,460.248291 466.660614,462.338074 465.008087,464.573486 
	C460.749390,470.334229 455.722900,475.388428 450.323700,480.072266 
	C448.606506,481.561951 446.659332,481.654297 444.882385,480.198883 
	C442.726257,478.432831 442.839111,476.080536 443.871063,473.841888 
	C446.439148,468.270844 451.396271,464.651337 455.326019,460.192688 
	C457.530334,457.691620 460.224121,456.904572 463.706848,458.402222 
z"/>
<path fill="#C09B3E" opacity="1.000000" stroke="none" 
	d="
M428.786377,500.856934 
	C426.279388,502.069855 424.161041,501.964966 422.620667,500.025330 
	C421.066254,498.068024 421.653687,495.839691 422.900696,493.990936 
	C425.698334,489.843170 429.144958,486.256500 433.165771,483.265472 
	C435.274902,481.696472 437.431335,481.566925 439.465698,483.505493 
	C441.741394,485.674011 441.357513,488.035278 439.646973,490.179993 
	C436.541229,494.073944 433.185730,497.756042 428.786377,500.856934 
z"/>
<path fill="#D4AE4A" opacity="1.000000" stroke="none" 
	d="
M602.531860,533.962158 
	C601.030090,535.258118 598.830078,534.991699 596.686646,534.992126 
	C552.169189,535.000977 507.651764,535.004639 463.134338,534.973572 
	C461.331818,534.972290 459.529541,534.620178 457.365967,534.232422 
	C492.231110,533.965088 527.457458,533.884949 562.683838,533.835083 
	C575.811951,533.816528 588.940186,533.868652 602.531860,533.962158 
z"/>
<path fill="#C69F3E" opacity="1.000000" stroke="none" 
	d="
M298.033386,515.375854 
	C299.255676,515.684692 300.987701,516.449097 300.451416,517.844543 
	C297.484558,525.564148 300.011444,533.638428 298.668793,541.433533 
	C298.614258,541.750061 298.417267,542.042053 298.063171,542.700989 
	C297.773529,542.437073 297.707367,541.817627 297.785370,540.916748 
	C297.921265,540.263184 297.810547,539.926636 297.526550,539.363403 
	C297.391449,538.307068 297.311768,537.518127 297.275024,536.333496 
	C297.317932,535.937744 297.410492,535.482849 297.342041,535.261047 
	C297.250885,532.306641 297.228149,529.574036 297.271912,526.389954 
	C297.338409,525.938477 297.410980,525.487854 297.357178,525.266113 
	C297.273163,524.566040 297.242950,524.087769 297.295654,523.257080 
	C297.505005,522.546021 297.671783,522.207214 297.890137,521.604126 
	C297.805786,521.029419 297.689636,520.743286 297.623322,520.446106 
	C297.590607,520.299500 297.649841,520.132446 297.799591,519.776428 
	C297.830627,519.305298 297.729584,519.032410 297.803650,518.359741 
	C297.969604,517.219360 297.960480,516.478821 298.033386,515.375854 
z"/>
<path fill="#D4AE4A" opacity="1.000000" stroke="none" 
	d="
M417.528015,533.988281 
	C415.847168,535.342712 413.463531,535.026672 411.159912,534.970764 
	C400.026642,534.700928 388.874817,535.627747 377.390015,534.273376 
	C390.370575,534.031616 403.717407,533.974670 417.528015,533.988281 
z"/>
<path fill="#D4AE4A" opacity="1.000000" stroke="none" 
	d="
M645.528992,533.985352 
	C643.715332,535.423218 641.180908,535.033875 638.750916,534.968323 
	C628.077881,534.680542 617.382019,535.722168 606.366455,534.227112 
	C619.025269,533.990051 632.045349,533.951843 645.528992,533.985352 
z"/>
<path fill="#D4AE4A" opacity="1.000000" stroke="none" 
	d="
M449.527222,533.983398 
	C441.263855,535.758850 432.503418,535.136230 423.377686,534.247070 
	C431.696960,534.007629 440.380463,533.959106 449.527222,533.983398 
z"/>
<path fill="#D4AE4A" opacity="1.000000" stroke="none" 
	d="
M676.530273,533.980347 
	C670.273743,535.760925 663.508850,535.116333 656.377808,534.244507 
	C662.697144,534.007690 669.381714,533.959167 676.530273,533.980347 
z"/>
<path fill="#D4AE4A" opacity="1.000000" stroke="none" 
	d="
M728.516357,534.043335 
	C723.930664,535.665344 718.839600,535.167786 713.380249,534.265259 
	C718.029907,534.041077 723.042969,534.005005 728.516357,534.043335 
z"/>
<path fill="#D4AE4A" opacity="1.000000" stroke="none" 
	d="
M690.537964,534.000305 
	C687.942932,535.483948 684.837524,535.233154 681.363281,534.239624 
	C684.040344,534.014221 687.065186,533.970764 690.537964,534.000305 
z"/>
<path fill="#BE993E" opacity="1.000000" stroke="none" 
	d="
M328.321716,521.228943 
	C328.059723,520.044922 328.027924,518.483826 327.995605,516.457764 
	C327.420349,515.315491 327.267273,514.550781 327.776306,513.380249 
	C328.032776,513.058594 328.503113,513.034302 328.737793,513.014282 
	C328.832245,515.613464 328.692078,518.232727 328.321716,521.228943 
z"/>
<path fill="#C69F3E" opacity="1.000000" stroke="none" 
	d="
M297.915039,545.408569 
	C299.058380,546.433167 300.686615,547.784973 298.470642,549.849121 
	C298.092316,548.603394 297.970490,547.213196 297.915039,545.408569 
z"/>
<path fill="#D4AE4A" opacity="1.000000" stroke="none" 
	d="
M369.578033,534.013184 
	C368.591339,535.013916 367.130524,535.158325 365.312714,534.268799 
	C366.406525,534.050415 367.787170,533.998352 369.578033,534.013184 
z"/>
<path fill="#D4AE4A" opacity="1.000000" stroke="none" 
	d="
M698.578247,534.013489 
	C697.581360,534.970520 696.122375,535.148865 694.308899,534.242798 
	C695.404114,534.032593 696.786194,533.987427 698.578247,534.013489 
z"/>
<path fill="#D4AE4A" opacity="1.000000" stroke="none" 
	d="
M710.592529,534.018921 
	C709.898682,534.827637 708.765564,535.064514 707.286621,534.245361 
	C708.082092,534.043091 709.140869,533.997314 710.592529,534.018921 
z"/>
<path fill="#D4AE4A" opacity="1.000000" stroke="none" 
	d="
M651.597168,533.987427 
	C650.905579,534.835388 649.769409,535.084473 648.279236,534.226257 
	C649.078369,534.015259 650.140869,533.966248 651.597168,533.987427 
z"/>
<path fill="#D4AE4A" opacity="1.000000" stroke="none" 
	d="
M374.660645,534.020508 
	C374.455231,534.158020 373.923950,534.234009 373.206238,534.197021 
	C373.458130,534.042297 373.896423,534.000671 374.660645,534.020508 
z"/>
<path fill="#C69F3E" opacity="1.000000" stroke="none" 
	d="
M298.987091,556.331665 
	C299.148773,556.528992 299.259857,557.054749 299.269928,557.770569 
	C299.091431,557.527100 299.013947,557.093628 298.987091,556.331665 
z"/>
<path fill="#C09A3B" opacity="1.000000" stroke="none" 
	d="
M297.682831,521.529175 
	C297.802307,521.678955 297.703247,522.037842 297.491364,522.650757 
	C297.407135,522.515930 297.435699,522.127136 297.682831,521.529175 
z"/>
<path fill="#C69F3E" opacity="1.000000" stroke="none" 
	d="
M298.477814,552.193298 
	C298.607483,552.189087 298.696167,552.502625 298.705170,552.969604 
	C298.562561,552.919128 298.499695,552.715027 298.477814,552.193298 
z"/>
<path fill="#C09A3B" opacity="1.000000" stroke="none" 
	d="
M297.864807,518.145996 
	C297.973633,518.229431 297.968506,518.498962 297.947540,519.173340 
	C297.846405,519.307922 297.740204,519.041809 297.684875,518.765503 
	C297.657898,518.630798 297.725891,518.477173 297.864807,518.145996 
z"/>
<path fill="#C09A3B" opacity="1.000000" stroke="none" 
	d="
M297.241089,525.270630 
	C297.457397,525.249512 297.505035,525.475769 297.392334,525.830811 
	C297.338409,525.938477 297.178833,525.496948 297.241089,525.270630 
z"/>
<path fill="#C09A3B" opacity="1.000000" stroke="none" 
	d="
M297.412659,539.379822 
	C297.587524,539.433350 297.703979,539.770752 297.875000,540.371704 
	C297.737793,540.311340 297.546021,539.987549 297.412659,539.379822 
z"/>
<path fill="#C09A3B" opacity="1.000000" stroke="none" 
	d="
M297.210999,535.267517 
	C297.430786,535.244019 297.481262,535.471130 297.371460,535.829224 
	C297.317932,535.937744 297.148376,535.495789 297.210999,535.267517 
z"/>
<path fill="#060503" opacity="1.000000" stroke="none" 
	d="
M552.069153,554.048889 
	C587.836731,550.276978 622.252869,555.003113 656.161987,564.851685 
	C659.717529,565.884399 660.470520,566.967102 659.184692,570.643799 
	C645.258606,610.462402 621.659729,642.048828 582.850464,660.668518 
	C517.331787,692.102783 438.693634,669.102173 400.282379,607.437561 
	C392.407196,594.794922 386.054016,581.515320 382.178986,567.070129 
	C381.198700,563.415894 381.814972,562.288452 385.811279,562.000366 
	C416.964600,559.754700 447.693573,561.961975 477.873749,570.255249 
	C480.065948,570.857666 481.761261,570.217041 483.612427,569.605713 
	C505.790833,562.281494 528.415039,556.916992 552.069153,554.048889 
z"/>
<path fill="#020201" opacity="1.000000" stroke="none" 
	d="
M686.972656,602.066345 
	C678.862549,606.509399 670.545227,608.365295 661.705872,607.955994 
	C660.982788,606.333252 662.154297,605.356628 662.696350,604.258728 
	C669.953796,589.559937 675.435242,574.260193 678.140015,558.055054 
	C678.690735,554.755249 679.910828,553.234863 683.539917,553.198975 
	C694.199829,553.093323 704.844788,552.353821 715.349915,550.459045 
	C719.253906,549.754883 718.174500,552.256958 717.888000,553.942749 
	C714.443176,574.214111 705.693726,591.142029 686.972656,602.066345 
z"/>
<path fill="#C69F3E" opacity="1.000000" stroke="none" 
	d="
M299.418640,510.694153 
	C299.778351,510.149750 299.785431,510.243622 299.418640,510.694153 
z"/>
<path fill="#C69F3E" opacity="1.000000" stroke="none" 
	d="
M327.505676,548.503357 
	C327.486450,548.510010 327.524902,548.496704 327.505676,548.503357 
z"/>
<path fill="#C69F3E" opacity="1.000000" stroke="none" 
	d="
M302.504364,529.494141 
	C302.511108,529.513611 302.497620,529.474731 302.504364,529.494141 
z"/>
<path fill="#C09A3B" opacity="1.000000" stroke="none" 
	d="
M327.898315,512.789001 
	C328.021729,513.791748 328.010712,514.524841 327.997375,515.625366 
	C322.433533,517.684937 316.839935,515.539856 311.098694,516.552246 
	C311.356476,515.840210 311.419891,515.327332 311.569427,515.300842 
	C316.962585,514.345581 322.363770,513.435608 327.898315,512.789001 
z"/>
<path fill="#C09A3B" opacity="1.000000" stroke="none" 
	d="
M325.965302,522.251343 
	C325.957214,521.657715 326.032440,521.524414 325.965302,522.251343 
z"/>
<path fill="#C29C3D" opacity="1.000000" stroke="none" 
	d="
M477.897614,602.054932 
	C453.587219,593.867554 428.833008,591.224182 403.753693,590.993652 
	C400.202026,590.960999 398.350800,589.918457 397.207153,586.594299 
	C395.694977,582.198975 393.890167,577.888000 391.948486,573.661499 
	C390.182617,569.817688 390.626495,568.170410 395.397125,568.057068 
	C428.989075,567.259033 461.807709,571.075806 493.411438,583.216309 
	C529.108887,596.929443 560.292297,617.297729 586.547668,645.193542 
	C589.413513,648.238403 589.432007,649.484985 585.546753,651.272827 
	C580.257874,653.706543 574.973816,656.095032 569.544739,658.214294 
	C566.703979,659.323181 565.043579,658.697510 563.111633,656.563843 
	C539.758179,630.772217 510.754700,613.747620 477.897614,602.054932 
z"/>
<path fill="#C29C3E" opacity="1.000000" stroke="none" 
	d="
M406.469849,603.373413 
	C405.471680,601.645264 404.695282,600.219604 403.506653,598.037170 
	C464.419556,597.632141 515.737976,618.358643 558.567200,661.844360 
	C549.246155,664.792480 540.402039,666.098389 531.462891,666.951416 
	C529.543945,667.134583 528.330811,665.954163 527.104370,664.882568 
	C497.166565,638.726257 461.851288,625.641479 422.686707,621.995911 
	C420.368530,621.780151 419.046783,620.683777 417.846527,619.034485 
	C414.123413,613.918457 410.409241,608.796021 406.469849,603.373413 
z"/>
<path fill="#C19B3D" opacity="1.000000" stroke="none" 
	d="
M635.000854,566.964111 
	C639.766541,568.114929 644.113159,569.236877 648.486755,570.240906 
	C650.800659,570.772217 651.397461,571.687134 650.301453,574.023804 
	C648.043884,578.836853 645.964600,583.744568 644.065552,588.710327 
	C643.010803,591.468140 641.603088,591.918396 638.777527,591.234070 
	C624.046509,587.666260 609.126587,585.132629 593.991455,584.057556 
	C572.434021,582.526245 551.083008,584.111084 529.966797,588.670044 
	C527.037170,589.302551 524.579041,588.890320 521.855286,587.640625 
	C513.698608,583.898010 505.377045,580.516235 497.149109,576.926514 
	C495.680328,576.285645 493.875885,576.206116 492.671265,574.462341 
	C539.418762,559.315979 586.538208,554.570374 635.000854,566.964111 
z"/>
<path fill="#C09A3D" opacity="1.000000" stroke="none" 
	d="
M618.662354,618.328125 
	C601.064148,614.738831 583.772278,612.485779 566.179138,613.881226 
	C564.640381,614.003235 563.248962,613.860229 561.948242,612.873474 
	C553.763245,606.664246 545.427185,600.666199 535.738525,594.896729 
	C549.158997,591.788208 561.832092,590.642456 574.567566,590.288635 
	C595.021667,589.720459 615.039246,593.057495 634.932373,597.440125 
	C638.246399,598.170227 638.627441,599.162781 636.680115,601.866699 
	C633.278992,606.589294 630.174561,611.510620 626.669617,616.181030 
	C624.395691,619.211182 622.224548,619.758728 618.662354,618.328125 
z"/>
<path fill="#C09B3E" opacity="1.000000" stroke="none" 
	d="
M445.177795,643.844238 
	C439.252289,639.835571 434.070343,635.505371 429.511841,630.264954 
	C461.911987,634.552734 491.534485,645.506897 517.366577,666.295776 
	C501.000214,668.555664 466.139801,658.722107 445.177795,643.844238 
z"/>
<path fill="#BE993E" opacity="1.000000" stroke="none" 
	d="
M610.027283,634.031738 
	C605.558533,637.781677 601.617920,643.577454 596.586182,643.490784 
	C591.752563,643.407471 588.796387,636.921753 585.182922,633.129639 
	C581.050781,628.793274 577.517700,623.886108 574.399841,620.056519 
	C587.585510,619.151611 602.613403,621.878174 617.954773,625.220825 
	C615.906982,628.780945 612.884949,631.103638 610.027283,634.031738 
z"/>
</svg>